<?xml version="1.0" encoding="UTF-8"?>
<svg width="200px" height="72px" viewBox="0 0 200 72" version="1.1" xmlns="http://www.w3.org/2000/svg" xmlns:xlink="http://www.w3.org/1999/xlink">
    <!-- Generator: Sketch 43.1 (39012) - http://www.bohemiancoding.com/sketch -->
    <title>brand-moby</title>
    <desc>Created with Sketch.</desc>
    <defs></defs>
    <g id="Page-1" stroke="none" stroke-width="1" fill="none" fill-rule="evenodd">
        <g id="brand-moby" fill-rule="nonzero" fill="#FFFFFF">
            <path d="M34.7457627,1.69491525 L35.4237288,1.69491525 C54.5762712,1.69491525 70.1694915,17.2881356 70.1694915,36.440678 C70.1694915,55.5932203 54.5762712,71.1864407 35.4237288,71.1864407 L34.7457627,71.1864407 C15.5932203,71.1864407 0,55.5932203 0,36.440678 C0,17.2881356 15.5932203,1.69491525 34.7457627,1.69491525 Z M37.2881356,33.7288136 C36.440678,26.6101695 32.3728814,20.6779661 25.4237288,15.0847458 L21.5254237,12.3728814 L18.6440678,16.440678 C15.2542373,21.5254237 13.3898305,28.9830508 13.8983051,35.9322034 C14.0677966,38.3050847 14.9152542,42.8813559 17.4576271,46.6101695 C15.0847458,47.9661017 10.6779661,49.6610169 4.57627119,49.6610169 C8.81355932,58.9830508 17.1186441,65.9322034 27.4576271,68.3050847 C29.6610169,64.4067797 31.6949153,60.5084746 33.3898305,56.440678 C39.6610169,56.6101695 53.0508475,56.440678 59.8305085,43.3898305 C60,43.0508475 60.3389831,42.3728814 61.5254237,39.8305085 L62.2033898,38.4745763 L58.6440678,36.1016949 C54.4067797,33.3898305 44.7457627,32.3728814 37.2881356,33.7288136 Z" id="Combined-Shape"></path>
            <path d="M79.3220339,47.9661017 C77.4576271,47.9661017 75.7627119,48.8135593 74.7457627,50.3389831 L74.7457627,48.3050847 L72.8813559,48.3050847 L72.8813559,66.1016949 L74.7457627,66.1016949 L74.7457627,59.3220339 C75.0847458,60 76.6101695,61.6949153 79.4915254,61.6949153 C83.220339,61.6949153 85.7627119,58.8135593 85.7627119,54.7457627 C85.7627119,50.8474576 83.0508475,47.9661017 79.3220339,47.9661017 L79.3220339,47.9661017 Z M79.1525424,60 C76.6101695,60 74.5762712,58.1355932 74.5762712,54.9152542 C74.5762712,52.2033898 76.2711864,49.8305085 78.9830508,49.8305085 C81.5254237,49.8305085 83.559322,51.8644068 83.559322,54.9152542 C83.7288136,57.7966102 81.8644068,60 79.1525424,60 Z M90.1694915,50.5084746 L90.1694915,48.3050847 L88.1355932,48.3050847 L88.1355932,61.3559322 L90.1694915,61.3559322 L90.1694915,55.0847458 C90.1694915,52.3728814 91.0169492,50 94.0677966,50 L94.0677966,47.9661017 C92.0338983,47.9661017 90.5084746,49.1525424 90.1694915,50.5084746 L90.1694915,50.5084746 Z M101.864407,47.9661017 C97.9661017,47.9661017 94.9152542,50.8474576 94.9152542,54.9152542 C94.9152542,58.8135593 97.7966102,61.8644068 101.864407,61.8644068 C105.762712,61.8644068 108.813559,58.9830508 108.813559,54.9152542 C108.813559,51.0169492 105.932203,47.9661017 101.864407,47.9661017 L101.864407,47.9661017 Z M101.864407,60 C98.9830508,60 97.1186441,57.9661017 97.1186441,54.9152542 C97.1186441,52.0338983 99.1525424,49.8305085 101.864407,49.8305085 C104.576271,49.8305085 106.779661,52.0338983 106.779661,54.9152542 C106.779661,57.7966102 104.745763,60 101.864407,60 L101.864407,60 Z M111.186441,61.8644068 C111.186441,63.7288136 110.338983,64.5762712 108.983051,64.5762712 L108.474576,64.5762712 L108.474576,66.2711864 L109.152542,66.2711864 C111.355932,66.2711864 113.220339,65.2542373 113.220339,61.8644068 L113.220339,48.3050847 L111.186441,48.3050847 L111.186441,61.8644068 L111.186441,61.8644068 Z M112.20339,43.559322 C112.20339,43.559322 112.033898,43.559322 112.20339,43.559322 C111.355932,43.559322 110.847458,44.2372881 110.847458,44.9152542 C110.847458,45.7627119 111.525424,46.2711864 112.20339,46.2711864 C112.881356,46.2711864 113.559322,45.7627119 113.559322,44.9152542 C113.559322,44.2372881 112.881356,43.559322 112.20339,43.559322 Z M121.864407,47.9661017 C118.305085,47.9661017 115.423729,50.6779661 115.423729,54.9152542 C115.423729,58.9830508 118.135593,61.6949153 122.20339,61.6949153 C125.254237,61.6949153 126.949153,60 127.627119,58.8135593 L126.271186,57.7966102 C125.59322,58.6440678 124.40678,59.8305085 122.20339,59.8305085 C119.491525,59.8305085 117.457627,58.1355932 117.457627,55.0847458 L128.135593,55.0847458 L128.135593,54.4067797 C128.135593,50.8474576 125.762712,47.9661017 121.864407,47.9661017 L121.864407,47.9661017 Z M117.627119,53.8983051 C117.79661,51.3559322 119.661017,49.8305085 121.864407,49.8305085 C124.067797,49.8305085 125.932203,51.1864407 126.101695,53.8983051 L117.627119,53.8983051 Z M136.440678,49.8305085 C138.474576,49.8305085 139.830508,51.0169492 140.338983,51.5254237 L141.016949,49.8305085 C140.338983,49.1525424 138.813559,47.9661017 136.440678,47.9661017 C132.542373,47.9661017 129.661017,51.0169492 129.661017,54.9152542 C129.661017,58.8135593 132.542373,61.8644068 136.440678,61.8644068 C138.983051,61.8644068 140.508475,60.5084746 141.016949,60 L140.338983,58.3050847 C139.830508,58.8135593 138.474576,60 136.440678,60 C133.728814,60 131.694915,57.7966102 131.694915,54.9152542 C131.694915,52.0338983 133.728814,49.8305085 136.440678,49.8305085 Z M147.966102,59.8305085 C146.271186,59.8305085 145.59322,59.3220339 145.59322,56.779661 L145.59322,50 L148.474576,50 L148.474576,48.3050847 L145.59322,48.3050847 L145.59322,45.5932203 L143.559322,45.5932203 L143.559322,48.3050847 L142.033898,48.3050847 L142.033898,50 L143.559322,50 L143.559322,56.9491525 C143.559322,59.8305085 144.745763,61.5254237 147.288136,61.5254237 L148.474576,61.5254237 L148.474576,59.8305085 L147.966102,59.8305085 L147.966102,59.8305085 Z M96.440678,20.3389831 C96.440678,18.1355932 97.6271186,16.6101695 99.6610169,16.6101695 C101.694915,16.6101695 102.881356,17.9661017 102.881356,20.3389831 L102.881356,35.7627119 L111.186441,35.7627119 L111.186441,18.4745763 C111.186441,13.0508475 108.305085,9.15254237 102.372881,9.15254237 C98.9830508,9.15254237 96.6101695,10.5084746 94.9152542,12.5423729 C93.559322,10.3389831 91.1864407,9.15254237 88.1355932,9.15254237 C84.5762712,9.15254237 82.3728814,10.8474576 81.5254237,12.5423729 L81.5254237,9.83050847 L73.3898305,9.83050847 L73.3898305,35.7627119 L81.6949153,35.7627119 L81.6949153,20.3389831 C81.6949153,17.9661017 82.8813559,16.6101695 84.9152542,16.6101695 C86.9491525,16.6101695 88.1355932,17.9661017 88.1355932,20.3389831 L88.1355932,35.7627119 L96.440678,35.7627119 L96.440678,20.3389831 L96.440678,20.3389831 Z M127.627119,9.15254237 C119.491525,9.15254237 113.389831,14.9152542 113.389831,22.8813559 C113.389831,30.6779661 119.322034,36.440678 127.627119,36.440678 C135.932203,36.440678 142.033898,30.6779661 142.033898,22.8813559 C142.033898,14.9152542 136.101695,9.15254237 127.627119,9.15254237 L127.627119,9.15254237 Z M127.627119,29.1525424 C124.237288,29.1525424 121.694915,26.6101695 121.694915,22.8813559 C121.694915,19.1525424 124.067797,16.440678 127.627119,16.440678 C131.016949,16.440678 133.728814,18.9830508 133.728814,22.7118644 C133.728814,26.440678 131.016949,29.1525424 127.627119,29.1525424 Z M159.830508,9.15254237 C155.762712,9.15254237 153.389831,11.1864407 152.881356,11.6949153 L152.881356,0 L144.576271,0 L144.576271,35.5932203 L152.372881,35.5932203 L152.372881,33.559322 C153.050847,34.4067797 155.59322,36.2711864 159.491525,36.2711864 C166.949153,36.2711864 172.372881,30.6779661 172.372881,22.7118644 C172.20339,14.7457627 167.457627,9.15254237 159.830508,9.15254237 L159.830508,9.15254237 Z M158.305085,29.1525424 C154.745763,29.1525424 152.711864,26.2711864 152.711864,22.8813559 C152.711864,18.8135593 155.084746,16.440678 158.305085,16.440678 C161.694915,16.440678 163.898305,18.9830508 163.898305,22.8813559 C163.898305,26.779661 161.694915,29.1525424 158.305085,29.1525424 Z M199.830508,9.83050847 L191.186441,9.83050847 L186.271186,24.7457627 L181.694915,9.83050847 L172.711864,9.83050847 L182.542373,34.9152542 L178.983051,44.5762712 L186.949153,44.5762712 L199.830508,9.83050847 Z" id="Shape"></path>
        </g>
    </g>
</svg>