<svg width="889" height="507" viewBox="0 0 889 507" xmlns="http://www.w3.org/2000/svg"><title>Artboard</title><defs><linearGradient x1="18.162%" y1="-2.37%" x2="68.962%" y2="128.991%" id="a"><stop stop-color="#ACB3B7" offset="0%"/><stop stop-color="#475159" offset="100%"/></linearGradient><filter x="-7.6%" y="-16.4%" width="115.3%" height="132.8%" filterUnits="objectBoundingBox" id="b"><feGaussianBlur stdDeviation="10" in="SourceGraphic"/></filter><filter x="-7.6%" y="-16.4%" width="115.3%" height="132.8%" filterUnits="objectBoundingBox" id="c"><feGaussianBlur stdDeviation="10" in="SourceGraphic"/></filter><linearGradient x1="5.309%" y1="-18.006%" x2="68.962%" y2="128.991%" id="d"><stop stop-color="#00A2FF" offset="0%"/><stop stop-color="#00213C" offset="100%"/></linearGradient><linearGradient x1="5.309%" y1="-18.006%" x2="68.962%" y2="128.991%" id="e"><stop stop-color="#ACB3B7" offset="0%"/><stop stop-color="#21282E" offset="100%"/></linearGradient><filter x="-4.9%" y="-16.4%" width="109.9%" height="132.8%" filterUnits="objectBoundingBox" id="f"><feGaussianBlur stdDeviation="10" in="SourceGraphic"/></filter></defs><g fill="none" fill-rule="evenodd"><path fill="url(#a)" opacity=".272" d="M251 241h368.34L858 424H489.66z"/><path fill="#111" opacity=".662" filter="url(#b)" d="M448 244h154.089L841 427H686.911z"/><path fill="#111" opacity=".837" filter="url(#c)" d="M262 244h154.089L655 427H500.911z"/><path d="M666.976 316.207h93.698L852 385h-93.698l-91.326-68.793zM451 200h58.165l242.352 184.784h-58.165L451 200zm66.993 1.002h93.697l145.276 111.553h-93.698L517.993 201.002z" fill="url(#a)"/><path d="M451 170h58.165l152.918 116.793h-58.165L451 170zm64.993 0h96.325l152.917 116.793H668.91L515.993 170zm92.192 119.758h158.124L851 354H692.876l-84.691-64.242z" fill="url(#a)"/><path d="M666.976 254.207h93.698L852 323h-93.698l-91.326-68.793zM451 138h58.165l242.352 184.784h-58.165L451 138zm66.993 1.002h93.697l145.276 111.553h-93.698L517.993 139.002z" fill="url(#a)"/><path stroke="#979797" opacity=".4" d="M448 134v69.914L692.376 392H855v-70.985L612.432 134z"/><path fill="url(#d)" d="M251 200h154.089L644 383H489.911z"/><path fill="url(#e)" d="M251 174h154.089L644 357H489.911z"/><path fill="url(#e)" d="M251 148h154.089L644 331H489.911z"/><path fill="url(#e)" d="M251 122h154.089L644 305H489.911z"/><path fill="url(#e)" d="M251 96h154.089L644 279H489.911z"/><path fill="url(#e)" d="M251 70h154.089L644 253H489.911z"/><path fill="url(#a)" d="M251 44h154.089L644 227H489.911z"/><path stroke="#FFF" opacity=".244" d="M243 204.532V36h163.527L652 223.137l-2.226 167.73L488.48 391z"/><text font-family="OpenSans-Semibold, Open Sans" font-size="16" font-weight="500" letter-spacing="-.6" fill="#FFF"><tspan x="9" y="39">Orchestration</tspan></text><text font-family="OpenSans-Extrabold, Open Sans" font-size="16" font-weight="600" letter-spacing="-.6" fill="#FFF"><tspan x="256" y="15">Component Library</tspan></text><text font-family="OpenSans-Extrabold, Open Sans" font-size="16" font-weight="600" letter-spacing="-.6" fill="#FFF"><tspan x="529" y="122">Assemblies</tspan></text><text font-family="OpenSans-Extrabold, Open Sans" font-size="16" font-weight="600" letter-spacing="-.6" fill="#FFF"><tspan x="487" y="449">Moby Tools</tspan></text><text font-family="OpenSans-Semibold, Open Sans" font-size="16" font-weight="500" letter-spacing="-.6" fill="#FFF"><tspan x="9" y="65">Image Management</tspan></text><text font-family="OpenSans-Semibold, Open Sans" font-size="16" font-weight="500" letter-spacing="-.6" fill="#FFF"><tspan x="9" y="91">Secret Management</tspan></text><text font-family="OpenSans-Semibold, Open Sans" font-size="16" font-weight="500" letter-spacing="-.6" fill="#FFF"><tspan x="9" y="117">Configuration Management</tspan></text><text font-family="OpenSans-Semibold, Open Sans" font-size="16" font-weight="500" letter-spacing="-.6" fill="#FFF"><tspan x="9" y="143">Networking</tspan></text><text font-family="OpenSans-Semibold, Open Sans" font-size="16" font-weight="500" letter-spacing="-.6" fill="#FFF"><tspan x="9" y="169">Provisioning</tspan></text><text font-family="OpenSans-ExtraboldItalic, Open Sans" font-size="16" font-style="italic" font-weight="600" letter-spacing="-.6" fill="#FFF"><tspan x="9" y="195">Your Component here</tspan></text><path d="M10.5 44.5h245.204M10.5 70.5h245.204M10.5 96.5h245.204M10.5 122.5h245.204M10.5 148.5h245.204M10.5 174.5h245.204M10.5 200.5h245.204" stroke="#ACB3B7" opacity=".301" stroke-linecap="square"/><path fill="#000" opacity=".272" filter="url(#f)" d="M251 293h368.34L858 476H489.66z"/></g></svg>