<?xml version="1.0" encoding="UTF-8"?>
<svg width="180px" height="40px" viewBox="0 0 180 40" version="1.1" xmlns="http://www.w3.org/2000/svg" xmlns:xlink="http://www.w3.org/1999/xlink">
    <!-- Generator: Sketch 44.1 (41455) - http://www.bohemiancoding.com/sketch -->
    <title>Artboard</title>
    <desc>Created with Sketch.</desc>
    <defs></defs>
    <g id="Page-1" stroke="none" stroke-width="1" fill="none" fill-rule="evenodd">
        <g id="Artboard" fill="#FFFFFF">
            <g id="Group" transform="translate(4.000000, 3.000000)" fill-rule="nonzero">
                <path d="M1.32075472,17.4432488 C1.32075472,26.3488183 8.53828478,33.5657429 17.4432488,33.5657429 C26.3488183,33.5657429 33.5657429,26.3482129 33.5657429,17.4432488 C33.5657429,8.53767938 26.3482129,1.32075472 17.4432488,1.32075472 C8.53767938,1.32075472 1.32075472,8.53828478 1.32075472,17.4432488 Z M0,17.4432488 C0,7.80960851 7.80749034,0 17.4432488,0 C27.0768891,0 34.8864976,7.80749034 34.8864976,17.4432488 C34.8864976,27.0768891 27.0790073,34.8864976 17.4432488,34.8864976 C7.80960851,34.8864976 0,27.0790073 0,17.4432488 Z" id="Rectangle"></path>
                <path d="M13.9929231,33.6764807 C15.1412639,31.6986339 16.17611,29.6031503 17.0931289,27.3927718 C20.2197489,27.479138 26.9940924,27.3927718 30.3812641,20.8289389 C30.4681146,20.6562065 30.6418157,20.3107416 31.2497696,19.0152482 L31.5971718,18.3243185 L29.6864596,17.2015576 C27.6020462,15.819698 22.7384151,15.3015007 19.0038412,15.9924305 C18.5695884,12.4514153 16.5720256,9.42859755 13.0111528,6.66487843 L11.01359,5.28301887 L9.62398105,7.35580821 C7.88696992,9.94679488 7.01846435,13.6605424 7.27901602,17.1151913 C7.36586658,18.3243185 7.80011936,20.5698402 9.10287771,22.4698971 C7.82949375,23.1452479 5.47739414,24.0681449 2.20879318,24.0287654 C1.33509962,22.0100059 0.850890186,19.783269 0.850890186,17.4432488 C0.850890186,8.27879459 8.27817155,0.850890186 17.4432488,0.850890186 C26.6077031,0.850890186 34.0356075,8.27817155 34.0356075,17.4432488 C34.0356075,26.6077031 26.6083261,34.0356075 17.4432488,34.0356075 C16.2601154,34.0356075 15.1059248,33.9118179 13.9929231,33.6764807 Z M9.92784288,32.2403829 C9.43853091,31.9795444 8.97905807,31.7164188 8.54762625,31.4525077 C8.99367562,31.7363022 9.45419927,31.9993786 9.92784288,32.2403829 Z" id="Combined-Shape"></path>
            </g>
            <text id="Moby" font-family="Geomanist-Bold, Geomanist" font-size="20" font-weight="bold">
                <tspan x="53" y="28">Moby</tspan>
            </text>
            <text id="project" font-family="Geomanist-Light, Geomanist" font-size="20" font-weight="300">
                <tspan x="110" y="28">project</tspan>
            </text>
        </g>
    </g>
</svg>