<?xml version="1.0" encoding="UTF-8"?>
<svg width="53px" height="56px" viewBox="0 0 53 56" version="1.1" xmlns="http://www.w3.org/2000/svg" xmlns:xlink="http://www.w3.org/1999/xlink">
    <!-- Generator: Sketch 44.1 (41455) - http://www.bohemiancoding.com/sketch -->
    <title>Artboard</title>
    <desc>Created with Sketch.</desc>
    <defs></defs>
    <g id="Page-1" stroke="none" stroke-width="1" fill="none" fill-rule="evenodd">
        <g id="Artboard">
            <g id="Group-2" opacity="0.5" transform="translate(7.000000, 1.000000)">
                <polygon id="Rectangle-10" points="0 0 40 0 40 40 0 40"></polygon>
                <path d="M36.6860833,6.08333333 L14.60275,1.66666667 L10.0194166,3.83333333 L10.0194166,5.83333333 L14.60275,4.16666667 L23.4360833,7.5 L4.60274996,33.0833333 C3.85274996,34.0833333 4.10274996,35.5 5.10274996,36.25 C6.10274996,37 7.51941662,36.75 8.26941662,35.75 L28.10275,9.33333333 L32.0194166,10.8333333 L36.6860833,6.08333333 Z M7.60274996,35.25 C7.10274996,35.9166667 6.26941662,36 5.60274996,35.5833333 C4.93608329,35.0833333 4.85274996,34.1666667 5.26941662,33.5833333 L24.1860833,8 L27.2694166,9.16666667 L7.60274996,35.25 L7.60274996,35.25 Z" id="Shape" fill="#FFFFFF" fill-rule="nonzero"></path>
                <path d="M32.9166667,34.5 L25.3333333,24.6666667 C24.9166667,24.1666667 24.25,24.0833333 23.75,24.4166667 L11.9166667,9.08333333 L10,8.33333333 L10.3333333,10.3333333 L22.0833333,25.6666667 C21.5833333,26.0833333 21.5,26.75 21.9166667,27.25 L29.5,37.0833333 C29.9166667,37.5833333 30.6666667,37.6666667 31.1666667,37.3333333 L32.6666667,36.1666667 C33.1666667,35.75 33.25,35 32.9166667,34.5 L32.9166667,34.5 Z M32.1666667,35.5 L30.6666667,36.6666667 C30.5,36.75 30.3333333,36.75 30.1666667,36.5833333 L22.5833333,26.75 C22.5,26.5833333 22.5,26.4166667 22.6666667,26.25 L24.1666667,25.0833333 C24.3333333,25 24.5,25 24.6666667,25.1666667 L32.25,35 C32.3333333,35.1666667 32.3333333,35.4166667 32.1666667,35.5 Z" id="Shape" fill="#FFFFFF" fill-rule="nonzero"></path>
            </g>
            <rect id="Rectangle-11" fill="#FFFFFF" opacity="0.100000001" transform="translate(26.000000, 50.000000) scale(1, -1) translate(-26.000000, -50.000000) " x="3" y="48" width="46" height="4"></rect>
        </g>
    </g>
</svg>